ISO-10303-21;
HEADER;
FILE_DESCRIPTION(('ViewDefinition [ReferenceView_V1.2]','RevitIdentifiers [ContentGUID: 96aeff62-6b72-42dd-974d-ca6b46c7fe56, VersionGUID: d895f127-3b2b-4c11-acf2-a0726ea009d2, NumberOfSaves: 0]','CoordinateReference [CoordinateBase: \X2\51714EAB57506807\X0\, ProjectSite: \X2\9ED88BA47AD970B9\X0\]','ExchangeRequirement [Structural]'),'2;1');
FILE_NAME('qiaosuo_c0.ifc','2025-06-06T14:14:15+08:00',(''),(''),'ODA SDAI 25.12','Autodesk Revit 26.0.10.8 (CHS) - IFC 26.0.10.8','');
FILE_SCHEMA(('IFC4'));
ENDSEC;
DATA;
#1=IFCORGANIZATION($,'Autodesk Revit 2026 (CHS)',$,$,$);
#2=IFCAPPLICATION(#1,'2026','Autodesk Revit 2026 (CHS)','Revit');
#3=IFCCARTESIANPOINT((0.,0.,0.));
#4=IFCCARTESIANPOINT((0.,0.));
#5=IFCDIRECTION((1.,0.,0.));
#6=IFCDIRECTION((-1.,0.,0.));
#7=IFCDIRECTION((0.,1.,0.));
#8=IFCDIRECTION((0.,-1.,0.));
#9=IFCDIRECTION((0.,0.,1.));
#10=IFCDIRECTION((0.,0.,-1.));
#11=IFCDIRECTION((1.,0.));
#12=IFCDIRECTION((-1.,0.));
#13=IFCDIRECTION((0.,1.));
#14=IFCDIRECTION((0.,-1.));
#15=IFCPERSON($,'','1273216960',$,$,$,$,$);
#16=IFCORGANIZATION($,'','',$,$);
#17=IFCPERSONANDORGANIZATION(#15,#16,$);
#18=IFCOWNERHISTORY(#17,#2,$,.NOCHANGE.,$,$,$,1749190454);
#19=IFCSIUNIT(*,.LENGTHUNIT.,.MILLI.,.METRE.);
#20=IFCSIUNIT(*,.AREAUNIT.,$,.SQUARE_METRE.);
#21=IFCSIUNIT(*,.VOLUMEUNIT.,$,.CUBIC_METRE.);
#22=IFCAXIS2PLACEMENT3D(#3,$,$);
#23=IFCDIRECTION((6.12323399573677E-17,1.));
#24=IFCGEOMETRICREPRESENTATIONCONTEXT($,'Model',3,0.01,#22,#23);
#25=IFCGEOMETRICREPRESENTATIONSUBCONTEXT('Axis','Model',*,*,*,*,#24,$,.GRAPH_VIEW.,$);
#26=IFCGEOMETRICREPRESENTATIONSUBCONTEXT('Body','Model',*,*,*,*,#24,$,.MODEL_VIEW.,$);
#27=IFCGEOMETRICREPRESENTATIONSUBCONTEXT('Box','Model',*,*,*,*,#24,$,.MODEL_VIEW.,$);
#28=IFCGEOMETRICREPRESENTATIONSUBCONTEXT('FootPrint','Model',*,*,*,*,#24,$,.MODEL_VIEW.,$);
#29=IFCPROJECT('2MhlzYQt92tPTDockvE06c',#18,'',$,$,'','',(#24),#452);
#30=IFCCLASSIFICATION('CSI (Construction Specifications Institute)','1998',$,'Uniformat','UniFormat Classification','https://www.csiresources.org/standards/uniformat',$);
#31=IFCAXIS2PLACEMENT3D(#3,$,$);
#32=IFCLOCALPLACEMENT(#39,#31);
#33=IFCPOSTALADDRESS($,$,$,$,$,$,'','','','');
#34=IFCBUILDING('2MhlzYQt92tPTDockvE06d',#18,'',$,$,#32,$,'',.ELEMENT.,$,$,#33);
#35=IFCAXIS2PLACEMENT3D(#3,$,$);
#36=IFCLOCALPLACEMENT(#32,#35);
#37=IFCBUILDINGSTOREY('3ObV4dEojC4Qpoe79ke0vr',#18,'\X2\68079AD8\X0\ 1',$,'\X2\68079AD8\X0\:\X2\68079AD8\X0\ 1',#36,$,'\X2\68079AD8\X0\ 1',.ELEMENT.,0.);
#38=IFCAXIS2PLACEMENT3D(#3,$,$);
#39=IFCLOCALPLACEMENT($,#38);
#40=IFCSITE('2MhlzYQt92tPTDockvE06a',#18,'Default',$,$,#39,$,$,.ELEMENT.,(42,24,53,508911),(-71,-15,-29,-58837),0.,$,$);
#41=IFCPROPERTYSINGLEVALUE('Reference',$,IFCIDENTIFIER('\X2\987976EE4FE1606F\X0\'),$);
#42=IFCPROPERTYSET('0gg0C15oqoEQTTmtlHOfzm',#18,'Pset_SiteCommon',$,(#41));
#43=IFCRELDEFINESBYPROPERTIES('2VUoyjhTmnc43rNXkBvmg0',#18,$,$,(#40),#42);
#44=IFCAXIS2PLACEMENT3D(#3,$,$);
#46=IFCINDEXEDPOLYGONALFACE((1,2,3,4));
#47=IFCINDEXEDPOLYGONALFACE((5,6,7,8));
#48=IFCINDEXEDPOLYGONALFACE((2,1,5,8));
#49=IFCINDEXEDPOLYGONALFACE((3,2,8,7));
#50=IFCINDEXEDPOLYGONALFACE((4,3,7,6));
#51=IFCINDEXEDPOLYGONALFACE((1,4,6,5));
#52=IFCCARTESIANPOINTLIST3D(((6.,1199.99613099634,-0.387225838211659),(6.,0.,-1683.00719788922),(6.,1480.63483906191,-1683.00719788922),(6.,2180.63483908936,-19.9999999970157),(-6.,1199.99613099634,-0.387225838211659),(-6.,2180.63483908936,-19.9999999970157),(-6.,1480.63483906191,-1683.00719788922),(-6.,0.,-1683.00719788922)));
#53=IFCPOLYGONALFACESET(#52,.T.,(#46,#47,#48,#49,#50,#51),$);
#54=IFCINDEXEDPOLYGONALFACE((55,27,54));
#55=IFCINDEXEDPOLYGONALFACE((7,87,86));
#56=IFCINDEXEDPOLYGONALFACE((13,14,38));
#57=IFCINDEXEDPOLYGONALFACE((39,63,30));
#58=IFCINDEXEDPOLYGONALFACE((86,87,88));
#59=IFCINDEXEDPOLYGONALFACE((59,62,75));
#60=IFCINDEXEDPOLYGONALFACE((89,90,91));
#61=IFCINDEXEDPOLYGONALFACE((65,38,82));
#62=IFCINDEXEDPOLYGONALFACE((27,52,54));
#63=IFCINDEXEDPOLYGONALFACE((44,21,35));
#64=IFCINDEXEDPOLYGONALFACE((74,9,46));
#65=IFCINDEXEDPOLYGONALFACE((70,30,64));
#66=IFCINDEXEDPOLYGONALFACE((7,8,39));
#67=IFCINDEXEDPOLYGONALFACE((80,15,81));
#68=IFCINDEXEDPOLYGONALFACE((10,34,46));
#69=IFCINDEXEDPOLYGONALFACE((17,84,83));
#70=IFCINDEXEDPOLYGONALFACE((15,16,40));
#71=IFCINDEXEDPOLYGONALFACE((68,29,67));
#72=IFCINDEXEDPOLYGONALFACE((89,5,90));
#73=IFCINDEXEDPOLYGONALFACE((83,84,85));
#74=IFCINDEXEDPOLYGONALFACE((66,57,61));
#75=IFCINDEXEDPOLYGONALFACE((80,81,82));
#76=IFCINDEXEDPOLYGONALFACE((44,45,21));
#77=IFCINDEXEDPOLYGONALFACE((43,17,18));
#78=IFCINDEXEDPOLYGONALFACE((64,30,63));
#79=IFCINDEXEDPOLYGONALFACE((76,49,2));
#80=IFCINDEXEDPOLYGONALFACE((33,76,77));
#81=IFCINDEXEDPOLYGONALFACE((42,91,69));
#82=IFCINDEXEDPOLYGONALFACE((72,29,68));
#83=IFCINDEXEDPOLYGONALFACE((42,3,4));
#84=IFCINDEXEDPOLYGONALFACE((52,27,44));
#85=IFCINDEXEDPOLYGONALFACE((45,26,46));
#86=IFCINDEXEDPOLYGONALFACE((33,49,76));
#87=IFCINDEXEDPOLYGONALFACE((19,53,56));
#88=IFCINDEXEDPOLYGONALFACE((50,58,59));
#89=IFCINDEXEDPOLYGONALFACE((5,6,41));
#90=IFCINDEXEDPOLYGONALFACE((43,67,29));
#91=IFCINDEXEDPOLYGONALFACE((36,53,20));
#92=IFCINDEXEDPOLYGONALFACE((36,47,53));
#93=IFCINDEXEDPOLYGONALFACE((49,33,48));
#94=IFCINDEXEDPOLYGONALFACE((51,60,61));
#95=IFCINDEXEDPOLYGONALFACE((47,48,51));
#96=IFCINDEXEDPOLYGONALFACE((80,82,14));
#97=IFCINDEXEDPOLYGONALFACE((45,34,21));
#98=IFCINDEXEDPOLYGONALFACE((12,52,11));
#99=IFCINDEXEDPOLYGONALFACE((47,36,121,24));
#100=IFCINDEXEDPOLYGONALFACE((2,49,1));
#101=IFCINDEXEDPOLYGONALFACE((78,22,58));
#102=IFCINDEXEDPOLYGONALFACE((8,74,75));
#103=IFCINDEXEDPOLYGONALFACE((62,63,39));
#104=IFCINDEXEDPOLYGONALFACE((83,85,16));
#105=IFCINDEXEDPOLYGONALFACE((23,64,71));
#106=IFCINDEXEDPOLYGONALFACE((86,88,6));
#107=IFCINDEXEDPOLYGONALFACE((23,68,73));
#108=IFCINDEXEDPOLYGONALFACE((89,91,4));
#109=IFCINDEXEDPOLYGONALFACE((79,25,60));
#110=IFCINDEXEDPOLYGONALFACE((57,56,32));
#111=IFCINDEXEDPOLYGONALFACE((66,67,43));
#112=IFCINDEXEDPOLYGONALFACE((52,44,35));
#113=IFCINDEXEDPOLYGONALFACE((45,50,26));
#114=IFCINDEXEDPOLYGONALFACE((50,44,27));
#115=IFCINDEXEDPOLYGONALFACE((74,46,26));
#116=IFCINDEXEDPOLYGONALFACE((10,46,9));
#117=IFCINDEXEDPOLYGONALFACE((34,45,46));
#118=IFCINDEXEDPOLYGONALFACE((48,47,24));
#119=IFCINDEXEDPOLYGONALFACE((32,56,53));
#120=IFCINDEXEDPOLYGONALFACE((48,24,108,37));
#121=IFCINDEXEDPOLYGONALFACE((51,48,33));
#122=IFCINDEXEDPOLYGONALFACE((48,37,49));
#123=IFCINDEXEDPOLYGONALFACE((49,37,120,1));
#124=IFCINDEXEDPOLYGONALFACE((44,50,45));
#125=IFCINDEXEDPOLYGONALFACE((58,50,27));
#126=IFCINDEXEDPOLYGONALFACE((60,51,33));
#127=IFCINDEXEDPOLYGONALFACE((47,51,32));
#128=IFCINDEXEDPOLYGONALFACE((11,52,35));
#129=IFCINDEXEDPOLYGONALFACE((52,12,54));
#130=IFCINDEXEDPOLYGONALFACE((32,53,47));
#131=IFCINDEXEDPOLYGONALFACE((20,53,19));
#132=IFCINDEXEDPOLYGONALFACE((12,13,54));
#133=IFCINDEXEDPOLYGONALFACE((38,78,55));
#134=IFCINDEXEDPOLYGONALFACE((54,13,55));
#135=IFCINDEXEDPOLYGONALFACE((13,38,55));
#136=IFCINDEXEDPOLYGONALFACE((32,61,57));
#137=IFCINDEXEDPOLYGONALFACE((18,19,56));
#138=IFCINDEXEDPOLYGONALFACE((43,18,57));
#139=IFCINDEXEDPOLYGONALFACE((18,56,57));
#140=IFCINDEXEDPOLYGONALFACE((58,27,55));
#141=IFCINDEXEDPOLYGONALFACE((59,58,22));
#142=IFCINDEXEDPOLYGONALFACE((62,59,22));
#143=IFCINDEXEDPOLYGONALFACE((26,50,59));
#144=IFCINDEXEDPOLYGONALFACE((60,33,77));
#145=IFCINDEXEDPOLYGONALFACE((61,60,25));
#146=IFCINDEXEDPOLYGONALFACE((66,61,25));
#147=IFCINDEXEDPOLYGONALFACE((32,51,61));
#148=IFCINDEXEDPOLYGONALFACE((62,22,63));
#149=IFCINDEXEDPOLYGONALFACE((62,39,75));
#150=IFCINDEXEDPOLYGONALFACE((22,65,63));
#151=IFCINDEXEDPOLYGONALFACE((64,23,70));
#152=IFCINDEXEDPOLYGONALFACE((65,64,63));
#153=IFCINDEXEDPOLYGONALFACE((71,64,28));
#154=IFCINDEXEDPOLYGONALFACE((65,22,78));
#155=IFCINDEXEDPOLYGONALFACE((64,65,28));
#156=IFCINDEXEDPOLYGONALFACE((66,25,67));
#157=IFCINDEXEDPOLYGONALFACE((57,66,43));
#158=IFCINDEXEDPOLYGONALFACE((25,69,67));
#159=IFCINDEXEDPOLYGONALFACE((68,23,72));
#160=IFCINDEXEDPOLYGONALFACE((69,68,67));
#161=IFCINDEXEDPOLYGONALFACE((73,68,31));
#162=IFCINDEXEDPOLYGONALFACE((69,25,79));
#163=IFCINDEXEDPOLYGONALFACE((68,69,31));
#164=IFCINDEXEDPOLYGONALFACE((73,70,23));
#165=IFCINDEXEDPOLYGONALFACE((70,41,88));
#166=IFCINDEXEDPOLYGONALFACE((81,71,28));
#167=IFCINDEXEDPOLYGONALFACE((71,40,72));
#168=IFCINDEXEDPOLYGONALFACE((71,72,23));
#169=IFCINDEXEDPOLYGONALFACE((72,40,85));
#170=IFCINDEXEDPOLYGONALFACE((90,73,31));
#171=IFCINDEXEDPOLYGONALFACE((73,41,70));
#172=IFCINDEXEDPOLYGONALFACE((75,74,26));
#173=IFCINDEXEDPOLYGONALFACE((8,9,74));
#174=IFCINDEXEDPOLYGONALFACE((75,26,59));
#175=IFCINDEXEDPOLYGONALFACE((8,75,39));
#176=IFCINDEXEDPOLYGONALFACE((2,3,76));
#177=IFCINDEXEDPOLYGONALFACE((77,3,42));
#178=IFCINDEXEDPOLYGONALFACE((3,77,76));
#179=IFCINDEXEDPOLYGONALFACE((77,42,79));
#180=IFCINDEXEDPOLYGONALFACE((55,78,58));
#181=IFCINDEXEDPOLYGONALFACE((65,78,38));
#182=IFCINDEXEDPOLYGONALFACE((77,79,60));
#183=IFCINDEXEDPOLYGONALFACE((69,79,42));
#184=IFCINDEXEDPOLYGONALFACE((40,71,81));
#185=IFCINDEXEDPOLYGONALFACE((40,81,15));
#186=IFCINDEXEDPOLYGONALFACE((81,28,82));
#187=IFCINDEXEDPOLYGONALFACE((65,82,28));
#188=IFCINDEXEDPOLYGONALFACE((38,14,82));
#189=IFCINDEXEDPOLYGONALFACE((84,43,29));
#190=IFCINDEXEDPOLYGONALFACE((43,84,17));
#191=IFCINDEXEDPOLYGONALFACE((84,29,85));
#192=IFCINDEXEDPOLYGONALFACE((72,85,29));
#193=IFCINDEXEDPOLYGONALFACE((40,16,85));
#194=IFCINDEXEDPOLYGONALFACE((87,39,30));
#195=IFCINDEXEDPOLYGONALFACE((39,87,7));
#196=IFCINDEXEDPOLYGONALFACE((87,30,88));
#197=IFCINDEXEDPOLYGONALFACE((70,88,30));
#198=IFCINDEXEDPOLYGONALFACE((41,6,88));
#199=IFCINDEXEDPOLYGONALFACE((31,91,90));
#200=IFCINDEXEDPOLYGONALFACE((5,41,90));
#201=IFCINDEXEDPOLYGONALFACE((73,90,41));
#202=IFCINDEXEDPOLYGONALFACE((69,91,31));
#203=IFCINDEXEDPOLYGONALFACE((42,4,91));
#204=IFCINDEXEDPOLYGONALFACE((114,166,167));
#205=IFCINDEXEDPOLYGONALFACE((145,115,144));
#206=IFCINDEXEDPOLYGONALFACE((122,101,102));
#207=IFCINDEXEDPOLYGONALFACE((123,152,116));
#208=IFCINDEXEDPOLYGONALFACE((171,172,173));
#209=IFCINDEXEDPOLYGONALFACE((139,149,151));
#210=IFCINDEXEDPOLYGONALFACE((174,175,176));
#211=IFCINDEXEDPOLYGONALFACE((112,154,156));
#212=IFCINDEXEDPOLYGONALFACE((166,130,100));
#213=IFCINDEXEDPOLYGONALFACE((157,112,156));
#214=IFCINDEXEDPOLYGONALFACE((120,136,1));
#215=IFCINDEXEDPOLYGONALFACE((97,98,123));
#216=IFCINDEXEDPOLYGONALFACE((172,171,97));
#217=IFCINDEXEDPOLYGONALFACE((163,164,162));
#218=IFCINDEXEDPOLYGONALFACE((116,153,165));
#219=IFCINDEXEDPOLYGONALFACE((99,136,138));
#220=IFCINDEXEDPOLYGONALFACE((103,104,124));
#221=IFCINDEXEDPOLYGONALFACE((130,166,114));
#222=IFCINDEXEDPOLYGONALFACE((175,174,95));
#223=IFCINDEXEDPOLYGONALFACE((164,127,115));
#224=IFCINDEXEDPOLYGONALFACE((141,142,127));
#225=IFCINDEXEDPOLYGONALFACE((134,148,149));
#226=IFCINDEXEDPOLYGONALFACE((130,114,129));
#227=IFCINDEXEDPOLYGONALFACE((127,105,106));
#228=IFCINDEXEDPOLYGONALFACE((128,129,134));
#229=IFCINDEXEDPOLYGONALFACE((168,133,92));
#230=IFCINDEXEDPOLYGONALFACE((119,168,169));
#231=IFCINDEXEDPOLYGONALFACE((146,117,145));
#232=IFCINDEXEDPOLYGONALFACE((160,115,145));
#233=IFCINDEXEDPOLYGONALFACE((126,93,94));
#234=IFCINDEXEDPOLYGONALFACE((153,116,152));
#235=IFCINDEXEDPOLYGONALFACE((157,159,112));
#236=IFCINDEXEDPOLYGONALFACE((119,133,168));
#237=IFCINDEXEDPOLYGONALFACE((107,137,140));
#238=IFCINDEXEDPOLYGONALFACE((120,128,136));
#239=IFCINDEXEDPOLYGONALFACE((95,96,125));
#240=IFCINDEXEDPOLYGONALFACE((115,143,144));
#241=IFCINDEXEDPOLYGONALFACE((35,137,11));
#242=IFCINDEXEDPOLYGONALFACE((35,131,137));
#243=IFCINDEXEDPOLYGONALFACE((133,119,132));
#244=IFCINDEXEDPOLYGONALFACE((150,155,135));
#245=IFCINDEXEDPOLYGONALFACE((131,132,135));
#246=IFCINDEXEDPOLYGONALFACE((157,156,122));
#247=IFCINDEXEDPOLYGONALFACE((128,120,37,108));
#248=IFCINDEXEDPOLYGONALFACE((100,130,20));
#249=IFCINDEXEDPOLYGONALFACE((21,131,35));
#250=IFCINDEXEDPOLYGONALFACE((92,133,10));
#251=IFCINDEXEDPOLYGONALFACE((158,148,122));
#252=IFCINDEXEDPOLYGONALFACE((139,138,113));
#253=IFCINDEXEDPOLYGONALFACE((151,152,123));
#254=IFCINDEXEDPOLYGONALFACE((160,162,115));
#255=IFCINDEXEDPOLYGONALFACE((160,161,124));
#256=IFCINDEXEDPOLYGONALFACE((171,173,96));
#257=IFCINDEXEDPOLYGONALFACE((147,110,145));
#258=IFCINDEXEDPOLYGONALFACE((174,176,94));
#259=IFCINDEXEDPOLYGONALFACE((170,111,150));
#260=IFCINDEXEDPOLYGONALFACE((141,140,118));
#261=IFCINDEXEDPOLYGONALFACE((127,142,143));
#262=IFCINDEXEDPOLYGONALFACE((129,128,108));
#263=IFCINDEXEDPOLYGONALFACE((113,138,136));
#264=IFCINDEXEDPOLYGONALFACE((129,108,24,121));
#265=IFCINDEXEDPOLYGONALFACE((134,129,114));
#266=IFCINDEXEDPOLYGONALFACE((129,121,130));
#267=IFCINDEXEDPOLYGONALFACE((130,121,36,20));
#268=IFCINDEXEDPOLYGONALFACE((132,131,21));
#269=IFCINDEXEDPOLYGONALFACE((118,140,137));
#270=IFCINDEXEDPOLYGONALFACE((34,132,21));
#271=IFCINDEXEDPOLYGONALFACE((135,132,119));
#272=IFCINDEXEDPOLYGONALFACE((132,34,133));
#273=IFCINDEXEDPOLYGONALFACE((10,133,34));
#274=IFCINDEXEDPOLYGONALFACE((148,134,114));
#275=IFCINDEXEDPOLYGONALFACE((128,134,113));
#276=IFCINDEXEDPOLYGONALFACE((150,135,119));
#277=IFCINDEXEDPOLYGONALFACE((131,135,118));
#278=IFCINDEXEDPOLYGONALFACE((113,136,128));
#279=IFCINDEXEDPOLYGONALFACE((1,136,99));
#280=IFCINDEXEDPOLYGONALFACE((118,137,131));
#281=IFCINDEXEDPOLYGONALFACE((11,137,107));
#282=IFCINDEXEDPOLYGONALFACE((113,149,139));
#283=IFCINDEXEDPOLYGONALFACE((98,99,138));
#284=IFCINDEXEDPOLYGONALFACE((123,98,139));
#285=IFCINDEXEDPOLYGONALFACE((98,138,139));
#286=IFCINDEXEDPOLYGONALFACE((118,142,141));
#287=IFCINDEXEDPOLYGONALFACE((106,107,140));
#288=IFCINDEXEDPOLYGONALFACE((127,106,141));
#289=IFCINDEXEDPOLYGONALFACE((106,140,141));
#290=IFCINDEXEDPOLYGONALFACE((155,118,135));
#291=IFCINDEXEDPOLYGONALFACE((142,155,143));
#292=IFCINDEXEDPOLYGONALFACE((144,143,111));
#293=IFCINDEXEDPOLYGONALFACE((115,127,143));
#294=IFCINDEXEDPOLYGONALFACE((146,144,111));
#295=IFCINDEXEDPOLYGONALFACE((145,110,160));
#296=IFCINDEXEDPOLYGONALFACE((146,145,144));
#297=IFCINDEXEDPOLYGONALFACE((147,145,117));
#298=IFCINDEXEDPOLYGONALFACE((170,146,111));
#299=IFCINDEXEDPOLYGONALFACE((176,146,126));
#300=IFCINDEXEDPOLYGONALFACE((175,147,117));
#301=IFCINDEXEDPOLYGONALFACE((165,147,125));
#302=IFCINDEXEDPOLYGONALFACE((148,114,167));
#303=IFCINDEXEDPOLYGONALFACE((149,148,109));
#304=IFCINDEXEDPOLYGONALFACE((151,149,109));
#305=IFCINDEXEDPOLYGONALFACE((113,134,149));
#306=IFCINDEXEDPOLYGONALFACE((150,119,169));
#307=IFCINDEXEDPOLYGONALFACE((111,143,155));
#308=IFCINDEXEDPOLYGONALFACE((151,109,152));
#309=IFCINDEXEDPOLYGONALFACE((139,151,123));
#310=IFCINDEXEDPOLYGONALFACE((109,154,152));
#311=IFCINDEXEDPOLYGONALFACE((153,110,165));
#312=IFCINDEXEDPOLYGONALFACE((154,153,152));
#313=IFCINDEXEDPOLYGONALFACE((112,159,161));
#314=IFCINDEXEDPOLYGONALFACE((156,158,122));
#315=IFCINDEXEDPOLYGONALFACE((153,154,112));
#316=IFCINDEXEDPOLYGONALFACE((111,155,150));
#317=IFCINDEXEDPOLYGONALFACE((118,155,142));
#318=IFCINDEXEDPOLYGONALFACE((158,154,109));
#319=IFCINDEXEDPOLYGONALFACE((157,122,102));
#320=IFCINDEXEDPOLYGONALFACE((102,103,157));
#321=IFCINDEXEDPOLYGONALFACE((159,124,161));
#322=IFCINDEXEDPOLYGONALFACE((154,158,156));
#323=IFCINDEXEDPOLYGONALFACE((148,158,109));
#324=IFCINDEXEDPOLYGONALFACE((157,103,159));
#325=IFCINDEXEDPOLYGONALFACE((103,124,159));
#326=IFCINDEXEDPOLYGONALFACE((161,160,110));
#327=IFCINDEXEDPOLYGONALFACE((160,124,162));
#328=IFCINDEXEDPOLYGONALFACE((110,153,161));
#329=IFCINDEXEDPOLYGONALFACE((112,161,153));
#330=IFCINDEXEDPOLYGONALFACE((124,104,162));
#331=IFCINDEXEDPOLYGONALFACE((162,104,163));
#332=IFCINDEXEDPOLYGONALFACE((164,163,105));
#333=IFCINDEXEDPOLYGONALFACE((127,164,105));
#334=IFCINDEXEDPOLYGONALFACE((162,164,115));
#335=IFCINDEXEDPOLYGONALFACE((147,165,110));
#336=IFCINDEXEDPOLYGONALFACE((165,125,173));
#337=IFCINDEXEDPOLYGONALFACE((100,101,166));
#338=IFCINDEXEDPOLYGONALFACE((167,101,122));
#339=IFCINDEXEDPOLYGONALFACE((101,167,166));
#340=IFCINDEXEDPOLYGONALFACE((148,167,122));
#341=IFCINDEXEDPOLYGONALFACE((92,93,168));
#342=IFCINDEXEDPOLYGONALFACE((169,93,126));
#343=IFCINDEXEDPOLYGONALFACE((93,169,168));
#344=IFCINDEXEDPOLYGONALFACE((169,126,170));
#345=IFCINDEXEDPOLYGONALFACE((169,170,150));
#346=IFCINDEXEDPOLYGONALFACE((146,170,126));
#347=IFCINDEXEDPOLYGONALFACE((116,173,172));
#348=IFCINDEXEDPOLYGONALFACE((97,123,172));
#349=IFCINDEXEDPOLYGONALFACE((123,116,172));
#350=IFCINDEXEDPOLYGONALFACE((165,173,116));
#351=IFCINDEXEDPOLYGONALFACE((125,96,173));
#352=IFCINDEXEDPOLYGONALFACE((125,147,175));
#353=IFCINDEXEDPOLYGONALFACE((125,175,95));
#354=IFCINDEXEDPOLYGONALFACE((175,117,176));
#355=IFCINDEXEDPOLYGONALFACE((146,176,117));
#356=IFCINDEXEDPOLYGONALFACE((126,94,176));
#357=IFCINDEXEDPOLYGONALFACE((2,1,99,98,97,171,96,95,174,94,93,92,10,9,8,7,86,6,5,89,4,3));
#358=IFCINDEXEDPOLYGONALFACE((18,17,83,16,15,80,14,13,12,11,107,106,105,163,104,103,102,101,100,20,19));
#359=IFCCARTESIANPOINTLIST3D(((-2.71411488504672E-13,877.795646244028,-1923.17925525832),(-28.7296920393561,873.204454262638,-1921.03834727733),(-53.9941592136689,859.9846438302,-1914.87384843333),(-72.7461339178922,839.730719188489,-1905.42928826521),(-82.7238512530247,814.885602565388,-1893.8438201161),(-82.7238512530247,788.445981700512,-1881.51482242809),(-72.7461339178921,763.600865077411,-1869.92935427899),(-53.9941592136687,743.346940435701,-1860.48479411086),(-28.7296920393559,730.127130003263,-1854.32029526686),(-2.36162068173056E-23,725.535938021873,-1852.17938728588),(0.,1771.74319860513,391.419323322275),(-28.7296920393559,1776.33439058652,389.278415341293),(-53.9941592136687,1789.55420101896,383.11391649729),(-72.7461339178921,1809.80812566067,373.669356329166),(-82.7238512530247,1834.65324228377,362.08388818006),(-82.7238512530247,1861.09286314865,349.754890492054),(-72.7461339178922,1885.93797977175,338.169422342948),(-53.9941592136689,1906.19190441346,328.724862174824),(-28.7296920393561,1919.4117148459,322.560363330821),(-2.71411488504672E-13,1924.00290682729,320.419455349839),(-1.14044600483818E-23,1266.52112810287,-692.032903263998),(-64.3477333451888,1275.83409438252,-743.061050946646),(-83.9999999999992,1324.76942235306,-765.879966254583),(-2.71411488504672E-13,1418.78218487265,-763.029879266709),(-64.347733133202,1373.70474920529,-788.698884292141),(-42.0000001871914,1052.61050606169,-1177.3946285976),(-42.0000003820297,1465.06755844382,-292.877625617316),(-78.9341801758844,1504.9600050839,-311.479771851632),(-78.93418013451,1557.03589220486,-335.763156983695),(-78.9341802139777,1092.50295167317,-1195.99677755158),(-78.9341801064563,1144.57883991376,-1220.28016021731),(-41.9999999847829,1596.92833669126,-354.365308110277),(-41.9999999392846,1184.4712837122,-1238.88231269902),(-1.75103334328437E-23,996.028533062371,-1272.10614527494),(-5.70223002419091E-24,1519.132163354,-150.306789970861),(-2.71411488504672E-13,1671.39254584997,-221.305211958435),(-2.71411488504672E-13,1148.28814880842,-1343.10621156302),(-64.3477333207968,1555.82700654891,-142.614313043413),(-64.3477333396864,995.841183152131,-1343.50778675833),(-83.9999999999992,1604.7623339846,-165.433229538806),(-83.9999999999992,1044.77651082997,-1366.32670285656),(-64.347733177118,1093.71183772618,-1389.14562052889),(-64.3477332088804,1653.69766078316,-188.252147506377),(-20.2565468772479,1395.07338137371,-422.217536636412),(-21.8669009734693,1159.39109947474,-928.626805126395),(-23.3258136713662,941.020324390783,-1397.8886504857),(-20.2565465081002,1542.83960670778,-491.122049658919),(-21.8669007755699,1306.40125069452,-997.178756396308),(-23.3258136008373,1087.29184867238,-1466.09617834878),(-40.0419546867374,1257.84583353006,-734.672993760801),(-40.0419542979158,1391.69300789605,-797.086946014888),(-19.4909367854279,1595.32208230652,7.6583251045876),(-19.4909363077424,1743.42623283472,-61.4037785881483),(-36.5221529336833,1625.57706579367,58.1948989763693),(-51.9040199742673,1604.10090184428,-10.5753419913541),(-36.5221524938789,1762.6919683315,-5.74282812310086),(-51.9040197395884,1723.81552090399,-66.3991798579399),(-53.1298974611997,1354.597644392,-547.960599763001),(-53.129897414673,1184.29740006711,-913.170652192307),(-53.1298971191628,1294.94119847126,-983.799337092693),(-53.129897122562,1465.24144335646,-618.58928336534),(-62.9238533994712,1134.33965531897,-1042.58589853096),(-73.1342735172029,1194.19396887211,-948.127459964766),(-80.949209034379,1304.02898795809,-757.277705885367),(-73.5704540278665,1369.73088671786,-573.536997332311),(-62.9238531884039,1515.19918824565,-489.17403672452),(-73.1342733465609,1455.3448756558,-583.632473374841),(-80.9492089521379,1345.50985426791,-774.482232378272),(-73.5704538895428,1279.80795780341,-958.22293590089),(-83.2375879047598,1174.53915117311,-1061.3312298048),(-83.162688424589,1457.59053236501,-453.050176286653),(-83.2375878548617,1474.99969330384,-470.4287037998),(-83.1626883925976,1191.94831136633,-1078.70975857866),(-39.2919225935693,875.225335075182,-1554.25452776903),(-52.400920921252,948.696875085491,-1417.02502999331),(-39.2919225543274,1009.80084052259,-1617.00811424298),(-52.4009207535882,1067.69814037963,-1472.51622605138),(-63.1104823149477,1414.52447765929,-442.228650859205),(-63.1104820524343,1235.01436609135,-1089.53128413978),(-77.7349925854584,1822.23068397222,367.876622254613),(-81.1377694218167,1669.73164467052,25.3370217120373),(-74.3351955400538,1637.20465300755,-3.29754000448506),(-77.7349925854585,1873.5154214602,343.962156417501),(-76.12985410243,1721.60936730435,1.14604211740181),(-82.089128571556,1688.80419721022,-27.3588028376927),(-77.7349925854584,776.023423388962,-1875.72208835354),(-76.1298541547041,927.929477007212,-1532.90597547158),(-82.089128596915,960.734646947091,-1504.4011308585),(-77.7349925854585,827.308160876939,-1899.63655419065),(-81.1377693922632,979.807200343567,-1557.09695355537),(-74.335195440165,1012.33419201539,-1528.46239200802),(28.7296920393564,730.127130003263,-1854.32029526686),(53.9941592136691,743.346940435701,-1860.48479411086),(72.7461339178924,763.600865077412,-1869.92935427899),(82.7238512530248,788.445981700513,-1881.51482242809),(82.7238512530246,814.885602565389,-1893.8438201161),(72.746133917892,839.73071918849,-1905.42928826521),(53.9941592136685,859.9846438302,-1914.87384843333),(28.7296920393556,873.204454262638,-1921.03834727733),(28.7296920393556,1919.4117148459,322.560363330821),(53.9941592136685,1906.19190441346,328.724862174824),(72.746133917892,1885.93797977175,338.169422342948),(82.7238512530246,1861.09286314865,349.754890492054),(82.7238512530248,1834.65324228377,362.08388818006),(72.7461339178924,1809.80812566067,373.669356329166),(53.9941592136691,1789.55420101896,383.11391649729),(28.7296920393564,1776.33439058652,389.278415341293),(-2.71411488504672E-13,1383.01780570924,-839.726837890371),(64.3477332278806,1373.70474939953,-788.698883608604),(83.9999999999992,1324.7694224451,-765.879965908772),(64.3477332023505,1275.83409541042,-743.06104833951),(78.9341801483932,1557.0358922418,-335.763156814214),(42.000000038006,1184.47128369316,-1238.88231260498),(42.0000000088525,1596.92833613303,-354.365309274537),(78.9341801442949,1504.96000503286,-311.479771755726),(78.9341801565736,1144.57883968849,-1220.28016037459),(78.9341801382188,1092.50295258512,-1195.99677510336),(41.9999999967015,1465.06756112263,-292.877619346193),(41.9999999848599,1052.61050850033,-1177.39462309151),(-2.71411488504672E-13,1130.40737376213,-1381.45165739386),(-2.71411488504672E-13,1653.50970848277,-259.655080450745),(64.3477332266105,1653.69766087081,-188.252147268415),(64.3477332404451,1093.71183788271,-1389.14562001463),(83.9999999999992,1604.76233390548,-165.433229591645),(83.9999999999992,1044.77651094608,-1366.32670227822),(64.3477332119513,995.841183977548,-1343.50778462801),(64.3477332195864,1555.82700691078,-142.614311981983),(20.2565465525545,1254.46545978907,-1109.542403396),(21.8669008182216,1490.1477423835,-603.133133322733),(23.3258136891438,1708.51851883303,-133.871284923752),(20.2565465125267,1395.07338450588,-422.217529704998),(21.8669008135095,1159.39110233731,-928.626798885551),(23.3258136392934,941.020325892723,-1397.88864724284),(40.0419543241912,1391.69300756028,-797.086946701241),(40.0419543419492,1257.84583716428,-734.672985524774),(19.4909363310736,1054.21676410773,-1539.41825394074),(19.4909363532063,1595.3220803089,7.65832106464457),(36.5221525431904,1023.96177852901,-1589.95483248756),(51.9040197695309,1045.43794142961,-1521.18459370358),(36.5221525706352,1625.57706655477,58.1949010233044),(51.9040197562683,1604.10090283337,-10.5753394648579),(55.1101093671437,1458.06034136822,-330.032254958785),(64.7259811278053,1416.24202574863,-443.029553928635),(74.2526796901456,1352.54964402973,-613.372101569199),(81.5146977825979,1335.18050592316,-695.562344426911),(72.6067552964845,1179.82484860836,-976.765090778756),(83.0699131741767,1182.93111071632,-1040.5572419367),(53.1298971875188,1472.53213222694,-602.954350501812),(53.1298971902296,1302.23188615737,-968.164406757255),(53.1298971811652,1177.00671211813,-928.805582502984),(62.9238533036108,1235.20627672085,-1089.62077287483),(73.1342734163835,1269.09202693521,-983.052996128345),(80.9492089881268,1344.69083166222,-776.238631716941),(73.5704539575902,1443.21201324824,-607.801807867908),(51.7593503776505,1318.32016562862,-623.165691527961),(72.4928927049033,1588.3615924469,-301.01592709945),(76.9246765643103,1728.02547024465,19.0625360187886),(65.7513139536088,1512.14389003362,-487.749327466712),(82.2508709932937,1672.9389225314,-59.5781644857323),(83.5927026885405,1457.27799544377,-462.164940646606),(83.5124379518868,1472.9564493147,-469.475923848651),(82.5906940328474,1580.68042462203,-180.821061861058),(77.7349925854586,1822.23068397222,367.876622254613),(76.1298541097593,1657.26163407583,31.151882940302),(83.2375878857105,1195.00678139726,-1070.87544053901),(39.2919226521015,1774.31350896232,22.4945941656832),(52.400920810403,1700.8419671461,-114.734907765481),(39.2919226110533,875.225335920743,-1554.25452597761),(52.4009207905954,948.696877413596,-1417.02502475391),(63.1104821176097,1134.53156705183,-1042.67538481892),(77.7349925854583,827.308160876939,-1899.63655419065),(76.1298541180632,992.277210715974,-1562.91181495721),(82.0891285890175,993.026431858788,-1519.45903558014),(77.7349925854586,776.023423388962,-1875.72208835354),(81.1377694051269,940.39948802252,-1538.72083542238),(74.3351954544796,941.426887596733,-1495.3977726799)));
#360=IFCPOLYGONALFACESET(#359,.T.,(#54,#55,#56,#57,#58,#59,#60,#61,#62,#63,#64,#65,#66,#67,#68,#69,#70,#71,#72,#73,#74,#75,#76,#77,#78,#79,#80,#81,#82,#83,#84,#85,#86,#87,#88,#89,#90,#91,#92,#93,#94,#95,#96,#97,#98,#99,#100,#101,#102,#103,#104,#105,#106,#107,#108,#109,#110,#111,#112,#113,#114,#115,#116,#117,#118,#119,#120,#121,#122,#123,#124,#125,#126,#127,#128,#129,#130,#131,#132,#133,#134,#135,#136,#137,#138,#139,#140,#141,#142,#143,#144,#145,#146,#147,#148,#149,#150,#151,#152,#153,#154,#155,#156,#157,#158,#159,#160,#161,#162,#163,#164,#165,#166,#167,#168,#169,#170,#171,#172,#173,#174,#175,#176,#177,#178,#179,#180,#181,#182,#183,#184,#185,#186,#187,#188,#189,#190,#191,#192,#193,#194,#195,#196,#197,#198,#199,#200,#201,#202,#203,#204,#205,#206,#207,#208,#209,#210,#211,#212,#213,#214,#215,#216,#217,#218,#219,#220,#221,#222,#223,#224,#225,#226,#227,#228,#229,#230,#231,#232,#233,#234,#235,#236,#237,#238,#239,#240,#241,#242,#243,#244,#245,#246,#247,#248,#249,#250,#251,#252,#253,#254,#255,#256,#257,#258,#259,#260,#261,#262,#263,#264,#265,#266,#267,#268,#269,#270,#271,#272,#273,#274,#275,#276,#277,#278,#279,#280,#281,#282,#283,#284,#285,#286,#287,#288,#289,#290,#291,#292,#293,#294,#295,#296,#297,#298,#299,#300,#301,#302,#303,#304,#305,#306,#307,#308,#309,#310,#311,#312,#313,#314,#315,#316,#317,#318,#319,#320,#321,#322,#323,#324,#325,#326,#327,#328,#329,#330,#331,#332,#333,#334,#335,#336,#337,#338,#339,#340,#341,#342,#343,#344,#345,#346,#347,#348,#349,#350,#351,#352,#353,#354,#355,#356,#357,#358),$);
#361=IFCINDEXEDPOLYGONALFACE((1,2,3,4));
#362=IFCINDEXEDPOLYGONALFACE((5,6,7,8));
#363=IFCINDEXEDPOLYGONALFACE((2,1,5,8));
#364=IFCINDEXEDPOLYGONALFACE((3,2,8,7));
#365=IFCINDEXEDPOLYGONALFACE((4,3,7,6));
#366=IFCINDEXEDPOLYGONALFACE((1,4,6,5));
#367=IFCCARTESIANPOINTLIST3D(((200.,919.485804447719,-1942.61969529838),(200.,1819.38714342542,-12.7750460848629),(200.,1797.52348883754,-12.3377729931735),(200.,901.359648706984,-1934.16733006357),(-200.,919.485804447719,-1942.61969529838),(-200.,901.359648706984,-1934.16733006357),(-200.,1797.52348883754,-12.3377729931735),(-200.,1819.38714342542,-12.7750460848629)));
#368=IFCPOLYGONALFACESET(#367,.T.,(#361,#362,#363,#364,#365,#366),$);
#369=IFCINDEXEDPOLYGONALFACE((1,2,3,4));
#370=IFCINDEXEDPOLYGONALFACE((5,1,4,6));
#371=IFCINDEXEDPOLYGONALFACE((7,5,6,8));
#372=IFCINDEXEDPOLYGONALFACE((2,7,8,3));
#373=IFCINDEXEDPOLYGONALFACE((3,8,6,4));
#374=IFCINDEXEDPOLYGONALFACE((2,1,5,7));
#375=IFCCARTESIANPOINTLIST3D(((200.,701.971935558924,-1841.19131248061),(200.,683.845779818189,-1832.7389472458),(-200.,683.845779818189,-1832.7389472458),(-200.,701.971935558924,-1841.19131248061),(200.,1557.02328837074,-7.52776898458692),(-200.,1557.02328837074,-7.52776898458692),(200.,1535.15963378286,-7.09049589289737),(-200.,1535.15963378286,-7.09049589289737)));
#376=IFCPOLYGONALFACESET(#375,.T.,(#369,#370,#371,#372,#373,#374),$);
#377=IFCINDEXEDPOLYGONALFACE((1,2,3,4));
#378=IFCINDEXEDPOLYGONALFACE((5,6,7,8));
#379=IFCINDEXEDPOLYGONALFACE((6,5,1,4));
#380=IFCINDEXEDPOLYGONALFACE((7,6,4,3));
#381=IFCINDEXEDPOLYGONALFACE((8,7,3,2));
#382=IFCINDEXEDPOLYGONALFACE((5,8,2,1));
#383=IFCCARTESIANPOINTLIST3D(((-200.,925.544124971751,-2000.61363250242),(-200.,635.525633120055,-1865.37578874539),(-200.,656.656546207094,-1820.06039939359),(-200.,946.675038058794,-1955.29824315059),(200.,925.544124971751,-2000.61363250242),(200.,946.675038058794,-1955.29824315059),(200.,656.656546207094,-1820.06039939359),(200.,635.525633120055,-1865.37578874539)));
#384=IFCPOLYGONALFACESET(#383,.T.,(#377,#378,#379,#380,#381,#382),$);
#385=IFCINDEXEDPOLYGONALFACE((1,2,3,4));
#386=IFCINDEXEDPOLYGONALFACE((2,1,5,6));
#387=IFCINDEXEDPOLYGONALFACE((3,2,6,7));
#388=IFCINDEXEDPOLYGONALFACE((4,3,7,8));
#389=IFCINDEXEDPOLYGONALFACE((1,4,8,5));
#390=IFCINDEXEDPOLYGONALFACE((5,8,7,6));
#391=IFCCARTESIANPOINTLIST3D(((8.,946.675038058794,-1955.29824315059),(8.,1182.81091622184,-1703.0071978892),(8.,1031.21894697926,-1703.0071978892),(8.,919.485804447719,-1942.61969529838),(-8.,946.675038058794,-1955.29824315059),(-8.,1182.81091622184,-1703.0071978892),(-8.,1031.21894697926,-1703.0071978892),(-8.,919.485804447719,-1942.61969529838)));
#392=IFCPOLYGONALFACESET(#391,.T.,(#385,#386,#387,#388,#389,#390),$);
#393=IFCINDEXEDPOLYGONALFACE((1,2,3));
#394=IFCINDEXEDPOLYGONALFACE((4,5,1,3));
#395=IFCINDEXEDPOLYGONALFACE((6,4,3,2));
#396=IFCINDEXEDPOLYGONALFACE((5,6,2,1));
#397=IFCINDEXEDPOLYGONALFACE((5,4,6));
#398=IFCCARTESIANPOINTLIST3D(((-8.,1701.79704988187,241.419323322262),(-8.,1592.83802309281,7.75593632113877),(-8.,1392.79097490057,11.7568772843674),(8.,1392.79097490057,11.7568772843674),(8.,1701.79704988187,241.419323322262),(8.,1592.83802309281,7.75593632113877)));
#399=IFCPOLYGONALFACESET(#398,.T.,(#393,#394,#395,#396,#397),$);
#400=IFCINDEXEDPOLYGONALFACE((1,2,3,4));
#401=IFCINDEXEDPOLYGONALFACE((5,1,4,6));
#402=IFCINDEXEDPOLYGONALFACE((2,5,6,3));
#403=IFCINDEXEDPOLYGONALFACE((3,6,4));
#404=IFCINDEXEDPOLYGONALFACE((2,1,5));
#405=IFCCARTESIANPOINTLIST3D(((8.,1854.05675810401,170.41945534984),(8.,1976.45273362709,0.0836421116328138),(-8.,1976.45273362709,0.0836421116328138),(-8.,1854.05675810401,170.41945534984),(8.,1776.49272163106,4.08284235093821),(-8.,1776.49272163106,4.08284235093821)));
#406=IFCPOLYGONALFACESET(#405,.T.,(#400,#401,#402,#403,#404),$);
#407=IFCINDEXEDPOLYGONALFACE((1,2,3,4));
#408=IFCINDEXEDPOLYGONALFACE((5,1,4,6));
#409=IFCINDEXEDPOLYGONALFACE((7,5,6,8));
#410=IFCINDEXEDPOLYGONALFACE((2,7,8,3));
#411=IFCINDEXEDPOLYGONALFACE((3,8,6,4));
#412=IFCINDEXEDPOLYGONALFACE((2,1,5,7));
#413=IFCCARTESIANPOINTLIST3D(((8.,589.915730905045,-1703.0071978892),(8.,744.340688049014,-1703.0071978892),(-8.,744.340688049014,-1703.0071978892),(-8.,589.915730905045,-1703.0071978892),(8.,656.656546207094,-1820.06039939359),(-8.,656.656546207094,-1820.06039939359),(8.,683.845779818184,-1832.73894724581),(-8.,683.845779818184,-1832.73894724581)));
#414=IFCPOLYGONALFACESET(#413,.T.,(#407,#408,#409,#410,#411,#412),$);
#415=IFCSHAPEREPRESENTATION(#26,'Body','Tessellation',(#53,#360,#368,#376,#384,#392,#399,#406,#414));
#416=IFCAXIS2PLACEMENT3D(#3,$,$);
#417=IFCREPRESENTATIONMAP(#416,#415);
#418=IFCBUILDINGELEMENTPROXYTYPE('3ObV4dEojC4Qpoe79ke0Ul',#18,'\X2\540A7D22951A\X0\:\X2\540A7D22951A\X0\',$,$,$,(#417),'3709',$,.NOTDEFINED.);
#419=IFCMATERIAL('<Unnamed>',$,$);
#420=IFCCARTESIANTRANSFORMATIONOPERATOR3D($,$,#3,1.,$);
#421=IFCMAPPEDITEM(#417,#420);
#422=IFCSHAPEREPRESENTATION(#26,'Body','MappedRepresentation',(#421));
#423=IFCPRODUCTDEFINITIONSHAPE($,$,(#422));
#424=IFCCARTESIANPOINT((2222.54543828265,1453.79785330948,0.));
#425=IFCAXIS2PLACEMENT3D(#424,$,$);
#426=IFCLOCALPLACEMENT(#36,#425);
#427=IFCBUILDINGELEMENTPROXY('3ObV4dEojC4Qpoe79ke0TV',#18,'\X2\540A7D22951A\X0\:\X2\540A7D22951A\X0\:3725',$,'\X2\540A7D22951A\X0\:\X2\540A7D22951A\X0\',#426,#423,'3725',.NOTDEFINED.);
#428=IFCPROPERTYSINGLEVALUE('Reference',$,IFCIDENTIFIER('\X2\540A7D22951A\X0\'),$);
#429=IFCPROPERTYSINGLEVALUE('IsExternal',$,IFCBOOLEAN(.F.),$);
#430=IFCPROPERTYSET('1UAKO1F_U2jjGSfnFn0jci',#18,'Pset_BuildingElementProxyCommon',$,(#428,#429));
#431=IFCPROPERTYSET('3mdxKo2rAjg5KIa9SvAh9R',#18,'Pset_EnvironmentalImpactIndicators',$,(#428));
#432=IFCRELDEFINESBYPROPERTIES('0ok04rdf7RX$v03h38NBlW',#18,$,$,(#427),#430);
#433=IFCRELDEFINESBYPROPERTIES('2gsVMMd2yxR8qUMJNuv1PZ',#18,$,$,(#427),#431);
#434=IFCQUANTITYAREA('NetSurfaceArea','',$,9.59731518383445,$);
#435=IFCQUANTITYVOLUME('NetVolume','',$,0.120429979504202,$);
#436=IFCELEMENTQUANTITY('3j$PGiAVa5EE4704Sf01z0',#18,'Qto_BuildingElementProxyQuantities',$,$,(#434,#435));
#437=IFCRELDEFINESBYPROPERTIES('1$vNlYrRkaHY3Y62p0W5HR',#18,$,$,(#427),#436);
#438=IFCPROPERTYSINGLEVALUE('Reference',$,IFCIDENTIFIER('\X2\68079AD8\X0\ 1'),$);
#439=IFCPROPERTYSINGLEVALUE('AboveGround',$,IFCLOGICAL(.F.),$);
#440=IFCPROPERTYSET('2I0dOXXhOu5QgWe1LWC_hA',#18,'Pset_BuildingStoreyCommon',$,(#438,#439));
#441=IFCRELDEFINESBYPROPERTIES('2GNdoArkDp5kyew5kCHt6C',#18,$,$,(#37),#440);
#442=IFCRELCONTAINEDINSPATIALSTRUCTURE('3ObV4dEojC4Qpoe7Dke0vr',#18,$,$,(#427),#37);
#443=IFCRELAGGREGATES('02Q7CIndipUOL1yGOT16wS',#18,$,$,#29,(#40));
#444=IFCRELAGGREGATES('0fXux1Z22HSafdT9Y7f9vk',#18,$,$,#40,(#34));
#445=IFCRELAGGREGATES('3ObV4dEojC4Qpoe75ke0zB',#18,$,$,#34,(#37));
#446=IFCPROPERTYSINGLEVALUE('NumberOfStoreys',$,IFCINTEGER(1),$);
#447=IFCPROPERTYSINGLEVALUE('IsLandmarked',$,IFCLOGICAL(.F.),$);
#448=IFCPROPERTYSET('043e$Py7M$K_RzKgXcpdXb',#18,'Pset_BuildingCommon',$,(#41,#446,#447));
#449=IFCRELDEFINESBYPROPERTIES('1wdexZQ$FzGGjlSfpEF28X',#18,$,$,(#34),#448);
#450=IFCRELASSOCIATESMATERIAL('0d_CfCKUmUIE7V49UBipNy',#18,$,$,(#418,#427),#419);
#451=IFCRELDEFINESBYTYPE('0Po4RPt_9Ial$xTxBu4VyC',#18,$,$,(#427),#418);
#452=IFCUNITASSIGNMENT((#19,#20,#21));
#453=IFCPERSON($,'','1273216960',$,$,$,$,$);
#454=IFCORGANIZATION($,'','',$,$);
#455=IFCPERSONANDORGANIZATION(#453,#454,$);
#456=IFCORGANIZATION($,'Autodesk Revit 2026 (CHS)',$,$,$);
#457=IFCAPPLICATION(#456,'2026','Autodesk Revit 2026 (CHS)','Revit');
#458=IFCOWNERHISTORY(#455,#457,$,.NOCHANGE.,$,$,$,1749190606);
#459=IFCCARTESIANPOINT((2222.54543828265,1453.79785330948,0.));
#460=IFCAXIS2PLACEMENT3D(#459,$,$);
#461=IFCLOCALPLACEMENT(#36,#460);
#462=IFCCARTESIANPOINT((0.,0.,0.));
#463=IFCAXIS2PLACEMENT3D(#462,$,$);
#464=IFCDIRECTION((6.12323399573677E-17,1.));
#465=IFCGEOMETRICREPRESENTATIONCONTEXT($,'Model',3,0.01,#463,#464);
#466=IFCGEOMETRICREPRESENTATIONSUBCONTEXT('Body','Model',*,*,*,*,#465,$,.MODEL_VIEW.,$);
#467=IFCAXIS2PLACEMENT3D(#462,$,$);
#468=IFCCARTESIANPOINTLIST2D(((-97.4777803719111,-44.2127237066827),(194.955560743823,-44.2127237066828),(-97.4777803719113,88.4254474133655),(-97.4777803719111,-44.2127237066827)));
#469=IFCINDEXEDPOLYCURVE(#468,$,.F.);
#470=IFCARBITRARYCLOSEDPROFILEDEF(.AREA.,'\X2\540A7D22951A\X0\',#469);
#471=IFCCARTESIANPOINT((-109.416711909751,1729.71603318078,82.5140095343271));
#472=IFCDIRECTION((-0.,-0.907603485741264,0.419828432422468));
#473=IFCDIRECTION((-0.,0.419828432422468,0.907603485741264));
#474=IFCAXIS2PLACEMENT3D(#471,#472,#473);
#475=IFCDIRECTION((0.,0.,1.));
#476=IFCEXTRUDEDAREASOLID(#470,#474,#475,16.0000000000002);
#477=IFCCARTESIANPOINTLIST2D(((-44.2127237066827,-97.4777803719112),(88.4254474133656,-97.4777803719114),(-44.2127237066829,194.955560743822),(-44.2127237066827,-97.4777803719112)));
#478=IFCINDEXEDPOLYCURVE(#477,$,.F.);
#479=IFCARBITRARYCLOSEDPROFILEDEF(.AREA.,'\X2\540A7D22951A\X0\',#478);
#480=IFCCARTESIANPOINT((109.416711909751,1729.71603318078,82.5140095343274));
#481=IFCDIRECTION((-0.,-0.907603485741264,0.419828432422468));
#482=IFCDIRECTION((1.,0.,0.));
#483=IFCAXIS2PLACEMENT3D(#480,#481,#482);
#484=IFCEXTRUDEDAREASOLID(#479,#483,#475,16.0000000000003);
#485=IFCSHAPEREPRESENTATION(#466,'Body','SweptSolid',(#476,#484));
#486=IFCREPRESENTATIONMAP(#467,#485);
#487=IFCCARTESIANTRANSFORMATIONOPERATOR3D($,$,#462,1.,$);
#488=IFCMAPPEDITEM(#486,#487);
#489=IFCSHAPEREPRESENTATION(#466,'Body','MappedRepresentation',(#488));
#490=IFCPRODUCTDEFINITIONSHAPE($,$,(#489));
#491=IFCBUILDINGELEMENTPROXY('1UjMn8uezDJvwvmtkCDB6z',#458,'\X2\540A7D22951A\X0\:\X2\540A7D22951A\X0\:3725',$,'\X2\540A7D22951A\X0\:\X2\540A7D22951A\X0\',#461,#490,'3725',.NOTDEFINED.);
#492=IFCRELCONTAINEDINSPATIALSTRUCTURE('0qq05oso543RXmuP3TtZpK',#18,'Containment',$,(#491),#37);
#493=IFCPERSON($,'','1273216960',$,$,$,$,$);
#494=IFCORGANIZATION($,'','',$,$);
#495=IFCPERSONANDORGANIZATION(#493,#494,$);
#496=IFCORGANIZATION($,'Autodesk Revit 2026 (CHS)',$,$,$);
#497=IFCAPPLICATION(#496,'2026','Autodesk Revit 2026 (CHS)','Revit');
#498=IFCOWNERHISTORY(#495,#497,$,.NOCHANGE.,$,$,$,1749190676);
#499=IFCCARTESIANPOINT((2222.54543828265,1453.79785330948,0.));
#500=IFCAXIS2PLACEMENT3D(#499,$,$);
#501=IFCLOCALPLACEMENT(#36,#500);
#502=IFCCARTESIANPOINT((0.,0.,0.));
#503=IFCAXIS2PLACEMENT3D(#502,$,$);
#504=IFCDIRECTION((6.12323399573677E-17,1.));
#505=IFCGEOMETRICREPRESENTATIONCONTEXT($,'Model',3,0.01,#503,#504);
#506=IFCGEOMETRICREPRESENTATIONSUBCONTEXT('Body','Model',*,*,*,*,#505,$,.MODEL_VIEW.,$);
#507=IFCAXIS2PLACEMENT3D(#502,$,$);
#508=IFCCARTESIANPOINTLIST2D(((-474.935022492291,-7.9984004798658),(475.254958511437,-7.9984004798658),(474.935022492291,7.99840047988502),(-475.254958511436,7.99840047984657),(-474.935022492291,-7.9984004798658)));
#509=IFCINDEXEDPOLYCURVE(#508,$,.F.);
#510=IFCARBITRARYCLOSEDPROFILEDEF(.AREA.,'\X2\540A7D22951A\X0\',#509);
#511=IFCCARTESIANPOINT((-200.,1705.63483908937,-2.49999999847112));
#512=IFCDIRECTION((1.,0.,0.));
#513=IFCDIRECTION((-0.,-0.999800059980068,0.0199960011965255));
#514=IFCAXIS2PLACEMENT3D(#511,#512,#513);
#515=IFCDIRECTION((0.,0.,1.));
#516=IFCEXTRUDEDAREASOLID(#510,#514,#515,400.);
#517=IFCCARTESIANPOINTLIST2D(((-200.,-740.317419530953),(200.,-740.317419530953),(200.,740.317419530953),(-200.,740.317419530953),(-200.,-740.317419530953)));
#518=IFCINDEXEDPOLYCURVE(#517,$,.F.);
#519=IFCARBITRARYCLOSEDPROFILEDEF(.AREA.,'\X2\540A7D22951A\X0\',#518);
#520=IFCCARTESIANPOINT((0.,740.317419530953,-1703.0071978892));
#521=IFCDIRECTION((-1.,0.,0.));
#522=IFCAXIS2PLACEMENT3D(#520,#515,#521);
#523=IFCEXTRUDEDAREASOLID(#519,#522,#515,19.9999999999784);
#524=IFCSHAPEREPRESENTATION(#506,'Body','SweptSolid',(#516,#523));
#525=IFCREPRESENTATIONMAP(#507,#524);
#526=IFCCARTESIANTRANSFORMATIONOPERATOR3D($,$,#502,1.,$);
#527=IFCMAPPEDITEM(#525,#526);
#528=IFCSHAPEREPRESENTATION(#506,'Body','MappedRepresentation',(#527));
#529=IFCPRODUCTDEFINITIONSHAPE($,$,(#528));
#530=IFCBUILDINGELEMENTPROXY('3uKr92F$jFbR8JqeGiXdOb',#498,'\X2\540A7D22951A\X0\:\X2\540A7D22951A\X0\:3725',$,'\X2\540A7D22951A\X0\:\X2\540A7D22951A\X0\',#501,#529,'3725',.NOTDEFINED.);
#531=IFCRELCONTAINEDINSPATIALSTRUCTURE('2YRGGsDL5B$xk4eaGbe$92',#18,'Containment',$,(#530),#37);
ENDSEC;
END-ISO-10303-21;
